<svg width="26" height="26" viewBox="0 0 26 26" fill="none" xmlns="http://www.w3.org/2000/svg">
<g clip-path="url(#clip0_1_1770)">
<path d="M3.25 13C3.25 14.2804 3.50219 15.5482 3.99217 16.7312C4.48216 17.9141 5.20034 18.9889 6.10571 19.8943C7.01108 20.7997 8.08591 21.5178 9.26884 22.0078C10.4518 22.4978 11.7196 22.75 13 22.75C14.2804 22.75 15.5482 22.4978 16.7312 22.0078C17.9141 21.5178 18.9889 20.7997 19.8943 19.8943C20.7997 18.9889 21.5178 17.9141 22.0078 16.7312C22.4978 15.5482 22.75 14.2804 22.75 13C22.75 11.7196 22.4978 10.4518 22.0078 9.26884C21.5178 8.08591 20.7997 7.01108 19.8943 6.10571C18.9889 5.20034 17.9141 4.48216 16.7312 3.99217C15.5482 3.50219 14.2804 3.25 13 3.25C11.7196 3.25 10.4518 3.50219 9.26884 3.99217C8.08591 4.48216 7.01108 5.20034 6.10571 6.10571C5.20034 7.01108 4.48216 8.08591 3.99217 9.26884C3.50219 10.4518 3.25 11.7196 3.25 13Z" stroke="#525270" stroke-width="1.625" stroke-linecap="round" stroke-linejoin="round"/>
<path d="M9.75 10.8333C9.75 11.6952 10.0924 12.5219 10.7019 13.1313C11.3114 13.7408 12.138 14.0833 13 14.0833C13.862 14.0833 14.6886 13.7408 15.2981 13.1313C15.9076 12.5219 16.25 11.6952 16.25 10.8333C16.25 9.9713 15.9076 9.14465 15.2981 8.53516C14.6886 7.92566 13.862 7.58325 13 7.58325C12.138 7.58325 11.3114 7.92566 10.7019 8.53516C10.0924 9.14465 9.75 9.9713 9.75 10.8333Z" stroke="#525270" stroke-width="1.625" stroke-linecap="round" stroke-linejoin="round"/>
<path d="M6.68164 20.4197C6.94978 19.5272 7.49844 18.745 8.24624 18.1891C8.99404 17.6331 9.90114 17.333 10.833 17.3333H15.1663C16.0993 17.3329 17.0076 17.6338 17.7559 18.191C18.5042 18.7483 19.0527 19.5322 19.3198 20.4262" stroke="#525270" stroke-width="1.625" stroke-linecap="round" stroke-linejoin="round"/>
</g>
<defs>
<clipPath id="clip0_1_1770">
<rect width="26" height="26" fill="white"/>
</clipPath>
</defs>
</svg>
