<svg width="22" height="23" viewBox="0 0 22 23" fill="none" xmlns="http://www.w3.org/2000/svg">
<g clip-path="url(#clip0_1_1715)">
<path d="M9.16602 4.91927C9.16602 4.43304 9.35917 3.96673 9.70299 3.62291C10.0468 3.27909 10.5131 3.08594 10.9993 3.08594C11.4856 3.08594 11.9519 3.27909 12.2957 3.62291C12.6395 3.96673 12.8327 4.43304 12.8327 4.91927C13.8854 5.41705 14.7828 6.1919 15.4287 7.1608C16.0747 8.12969 16.4448 9.25609 16.4993 10.4193V13.1693C16.5683 13.7392 16.7702 14.2849 17.0886 14.7626C17.407 15.2402 17.8332 15.6364 18.3327 15.9193H3.66602C4.16554 15.6364 4.59167 15.2402 4.9101 14.7626C5.22853 14.2849 5.43037 13.7392 5.49935 13.1693V10.4193C5.55395 9.25609 5.92404 8.12969 6.56997 7.1608C7.2159 6.1919 8.11331 5.41705 9.16602 4.91927Z" stroke="white" stroke-width="1.375" stroke-linecap="round" stroke-linejoin="round"/>
<path d="M8.25 15.9199V16.8366C8.25 17.5659 8.53973 18.2654 9.05546 18.7811C9.57118 19.2969 10.2707 19.5866 11 19.5866C11.7293 19.5866 12.4288 19.2969 12.9445 18.7811C13.4603 18.2654 13.75 17.5659 13.75 16.8366V15.9199" stroke="white" stroke-width="1.375" stroke-linecap="round" stroke-linejoin="round"/>
</g>
<defs>
<clipPath id="clip0_1_1715">
<rect width="22" height="22" fill="white" transform="translate(0 0.335938)"/>
</clipPath>
</defs>
</svg>
