<svg width="9" height="11" viewBox="0 0 9 11" fill="none" xmlns="http://www.w3.org/2000/svg">
<path d="M5.79739 2.22905C6.14463 1.80946 6.39265 1.25001 6.31824 0.690552C5.79739 0.713862 5.17733 1.0169 4.80529 1.41318C4.48286 1.76284 4.18523 2.3456 4.25964 2.88175C4.8549 2.95168 5.42536 2.64864 5.79739 2.22905M6.31824 3.02161C5.47496 2.97499 4.75569 3.46451 4.35885 3.46451C3.96201 3.46451 3.34195 3.04492 2.67228 3.04492C1.8042 3.06823 1.01052 3.51113 0.564076 4.25707C-0.328812 5.72564 0.316051 7.89352 1.20894 9.08236C1.63058 9.66512 2.15143 10.3178 2.8211 10.2945C3.46596 10.2712 3.71399 9.89823 4.48286 9.89823C5.25174 9.89823 5.47496 10.2945 6.16943 10.2712C6.8639 10.2479 7.31034 9.68843 7.73198 9.08236C8.22803 8.40635 8.42645 7.75365 8.42645 7.73034C8.40165 7.70703 7.06232 7.24082 7.06232 5.79557C7.03752 4.58342 8.10402 4.00065 8.15363 3.97734C7.58317 3.13816 6.64068 3.04492 6.31824 3.02161" fill="white"/>
</svg>
