<svg width="26" height="26" viewBox="0 0 26 26" fill="none" xmlns="http://www.w3.org/2000/svg">
<g clip-path="url(#clip0_29_323)">
<path d="M6.85858 8.66675H19.1425C19.4549 8.66671 19.7636 8.73423 20.0475 8.86467C20.3313 8.99512 20.5836 9.1854 20.7871 9.42248C20.9905 9.65957 21.1402 9.93784 21.2261 10.2382C21.3119 10.5386 21.3317 10.854 21.2842 11.1627L19.9247 19.9941C19.8066 20.7616 19.4177 21.4614 18.8283 21.967C18.2389 22.4725 17.488 22.7503 16.7115 22.7501H9.28849C8.51218 22.75 7.76151 22.4721 7.17234 21.9666C6.58317 21.4611 6.19441 20.7614 6.07641 19.9941L4.71683 11.1627C4.66934 10.854 4.68919 10.5386 4.77501 10.2382C4.86082 9.93784 5.01058 9.65957 5.21402 9.42248C5.41745 9.1854 5.66975 8.99512 5.95361 8.86467C6.23747 8.73423 6.54618 8.66671 6.85858 8.66675Z" stroke="#525270" stroke-width="1.625" stroke-linecap="round" stroke-linejoin="round"/>
<path d="M9.75 11.9167V6.5C9.75 5.63805 10.0924 4.8114 10.7019 4.2019C11.3114 3.59241 12.138 3.25 13 3.25C13.862 3.25 14.6886 3.59241 15.2981 4.2019C15.9076 4.8114 16.25 5.63805 16.25 6.5V11.9167" stroke="#525270" stroke-width="1.625" stroke-linecap="round" stroke-linejoin="round"/>
</g>
<defs>
<clipPath id="clip0_29_323">
<rect width="26" height="26" fill="white"/>
</clipPath>
</defs>
</svg>
