<svg width="26" height="26" viewBox="0 0 26 26" fill="none" xmlns="http://www.w3.org/2000/svg">
<g clip-path="url(#clip0_1_1746)">
<path d="M4.33301 5.41659C4.33301 5.12927 4.44714 4.85372 4.65031 4.65055C4.85347 4.44739 5.12902 4.33325 5.41634 4.33325H9.74967C10.037 4.33325 10.3125 4.44739 10.5157 4.65055C10.7189 4.85372 10.833 5.12927 10.833 5.41659V9.74992C10.833 10.0372 10.7189 10.3128 10.5157 10.516C10.3125 10.7191 10.037 10.8333 9.74967 10.8333H5.41634C5.12902 10.8333 4.85347 10.7191 4.65031 10.516C4.44714 10.3128 4.33301 10.0372 4.33301 9.74992V5.41659Z" stroke="#525270" stroke-width="1.625" stroke-linecap="round" stroke-linejoin="round"/>
<path d="M4.33301 16.2501C4.33301 15.9628 4.44714 15.6872 4.65031 15.484C4.85347 15.2809 5.12902 15.1667 5.41634 15.1667H9.74967C10.037 15.1667 10.3125 15.2809 10.5157 15.484C10.7189 15.6872 10.833 15.9628 10.833 16.2501V20.5834C10.833 20.8707 10.7189 21.1463 10.5157 21.3494C10.3125 21.5526 10.037 21.6667 9.74967 21.6667H5.41634C5.12902 21.6667 4.85347 21.5526 4.65031 21.3494C4.44714 21.1463 4.33301 20.8707 4.33301 20.5834V16.2501Z" stroke="#525270" stroke-width="1.625" stroke-linecap="round" stroke-linejoin="round"/>
<path d="M15.167 16.2501C15.167 15.9628 15.2811 15.6872 15.4843 15.484C15.6875 15.2809 15.963 15.1667 16.2503 15.1667H20.5837C20.871 15.1667 21.1465 15.2809 21.3497 15.484C21.5529 15.6872 21.667 15.9628 21.667 16.2501V20.5834C21.667 20.8707 21.5529 21.1463 21.3497 21.3494C21.1465 21.5526 20.871 21.6667 20.5837 21.6667H16.2503C15.963 21.6667 15.6875 21.5526 15.4843 21.3494C15.2811 21.1463 15.167 20.8707 15.167 20.5834V16.2501Z" stroke="#525270" stroke-width="1.625" stroke-linecap="round" stroke-linejoin="round"/>
<path d="M15.333 5.41634C15.333 5.12902 15.4471 4.85347 15.6503 4.65031C15.8535 4.44714 16.129 4.33301 16.4163 4.33301H20.7497C21.037 4.33301 21.3125 4.44714 21.5157 4.65031C21.7189 4.85347 21.833 5.12902 21.833 5.41634V9.74967C21.833 10.037 21.7189 10.3125 21.5157 10.5157C21.3125 10.7189 21.037 10.833 20.7497 10.833H16.4163C16.129 10.833 15.8535 10.7189 15.6503 10.5157C15.4471 10.3125 15.333 10.037 15.333 9.74967V5.41634Z" stroke="#525270" stroke-width="1.625" stroke-linecap="round" stroke-linejoin="round"/>
</g>
<defs>
<clipPath id="clip0_1_1746">
<rect width="26" height="26" fill="white"/>
</clipPath>
</defs>
</svg>
