<svg width="23" height="23" viewBox="0 0 23 23" fill="none" xmlns="http://www.w3.org/2000/svg">
<path opacity="0.3" d="M12.4882 8.70457L10.5118 8.04576C11.3084 5.65605 12.5861 4.16532 14.3724 3.71876C15.3024 3.48626 16.7083 1.98924 16.7083 1.0835H18.7917C18.7917 2.95553 16.7254 5.27796 14.8776 5.73989C13.8861 5.98778 13.0805 6.92761 12.4882 8.70457Z" fill="#8680F6"/>
<path fill-rule="evenodd" clip-rule="evenodd" d="M10.1906 16.7085C9.13974 17.9809 7.55005 18.7918 5.77095 18.7918C2.60681 18.7918 0.0417786 16.2268 0.0417786 13.0627C0.0417786 9.89853 2.60681 7.3335 5.77095 7.3335C5.94047 7.3335 6.10827 7.34086 6.27405 7.35528C6.40297 7.34089 6.534 7.3335 6.66676 7.3335H16.3334C16.4662 7.3335 16.5972 7.34089 16.7262 7.35528C16.8919 7.34086 17.0598 7.3335 17.2293 7.3335C20.3934 7.3335 22.9584 9.89853 22.9584 13.0627C22.9584 16.2268 20.3934 18.7918 17.2293 18.7918C15.4502 18.7918 13.8605 17.9809 12.8097 16.7085H10.1906ZM4.2084 9.91683C4.2084 9.64069 4.43226 9.41683 4.7084 9.41683H5.79174C6.06788 9.41683 6.29174 9.64069 6.29174 9.91683V11.0002C6.29174 11.2763 6.06788 11.5002 5.79174 11.5002H4.7084C4.43226 11.5002 4.2084 11.2763 4.2084 11.0002V9.91683ZM6.79178 11.5002C6.51564 11.5002 6.29178 11.724 6.29178 12.0002V13.0835C6.29178 13.3596 6.51564 13.5835 6.79178 13.5835H7.87511C8.15125 13.5835 8.37511 13.3596 8.37511 13.0835V12.0002C8.37511 11.724 8.15125 11.5002 7.87511 11.5002H6.79178ZM18.7918 11.5002C19.3671 11.5002 19.8335 11.0338 19.8335 10.4585C19.8335 9.8832 19.3671 9.41683 18.7918 9.41683C18.2165 9.41683 17.7501 9.8832 17.7501 10.4585C17.7501 11.0338 18.2165 11.5002 18.7918 11.5002ZM18.7917 13.5835C18.7917 14.1588 18.3254 14.6252 17.7501 14.6252C17.1748 14.6252 16.7084 14.1588 16.7084 13.5835C16.7084 13.0082 17.1748 12.5418 17.7501 12.5418C18.3254 12.5418 18.7917 13.0082 18.7917 13.5835ZM4.2084 14.0835C4.2084 13.8074 4.43226 13.5835 4.7084 13.5835H5.79174C6.06788 13.5835 6.29174 13.8074 6.29174 14.0835V15.1668C6.29174 15.443 6.06788 15.6668 5.79174 15.6668H4.7084C4.43226 15.6668 4.2084 15.443 4.2084 15.1668V14.0835ZM2.62512 11.5002C2.34898 11.5002 2.12512 11.724 2.12512 12.0002V13.0835C2.12512 13.3596 2.34898 13.5835 2.62512 13.5835H3.70846C3.9846 13.5835 4.20846 13.3596 4.20846 13.0835V12.0002C4.20846 11.724 3.9846 11.5002 3.70846 11.5002H2.62512Z" fill="#8680F6"/>
</svg>
