<svg width="18" height="18" viewBox="0 0 18 18" fill="none" xmlns="http://www.w3.org/2000/svg">
<g clip-path="url(#clip0_29_1037)">
<path d="M2.25 6.75C2.25 6.55109 2.32902 6.36032 2.46967 6.21967C2.61032 6.07902 2.80109 6 3 6H15C15.1989 6 15.3897 6.07902 15.5303 6.21967C15.671 6.36032 15.75 6.55109 15.75 6.75V8.25C15.75 8.44891 15.671 8.63968 15.5303 8.78033C15.3897 8.92098 15.1989 9 15 9H3C2.80109 9 2.61032 8.92098 2.46967 8.78033C2.32902 8.63968 2.25 8.44891 2.25 8.25V6.75Z" stroke="white" stroke-width="1.125" stroke-linecap="round" stroke-linejoin="round"/>
<path d="M9 6V15.75" stroke="white" stroke-width="1.125" stroke-linecap="round" stroke-linejoin="round"/>
<path d="M14.25 9V14.25C14.25 14.6478 14.092 15.0294 13.8107 15.3107C13.5294 15.592 13.1478 15.75 12.75 15.75H5.25C4.85218 15.75 4.47064 15.592 4.18934 15.3107C3.90804 15.0294 3.75 14.6478 3.75 14.25V9" stroke="white" stroke-width="1.125" stroke-linecap="round" stroke-linejoin="round"/>
<path d="M5.625 6.00033C5.12772 6.00033 4.65081 5.80278 4.29917 5.45115C3.94754 5.09952 3.75 4.62261 3.75 4.12533C3.75 3.62805 3.94754 3.15113 4.29917 2.7995C4.65081 2.44787 5.12772 2.25033 5.625 2.25033C6.34851 2.23772 7.05752 2.58877 7.65955 3.2577C8.26159 3.92662 8.72871 4.88238 9 6.00033C9.27129 4.88238 9.73842 3.92662 10.3404 3.2577C10.9425 2.58877 11.6515 2.23772 12.375 2.25033C12.8723 2.25033 13.3492 2.44787 13.7008 2.7995C14.0525 3.15113 14.25 3.62805 14.25 4.12533C14.25 4.62261 14.0525 5.09952 13.7008 5.45115C13.3492 5.80278 12.8723 6.00033 12.375 6.00033" stroke="white" stroke-width="1.125" stroke-linecap="round" stroke-linejoin="round"/>
</g>
<defs>
<clipPath id="clip0_29_1037">
<rect width="18" height="18" fill="white"/>
</clipPath>
</defs>
</svg>
