<svg width="26" height="26" viewBox="0 0 26 26" fill="none" xmlns="http://www.w3.org/2000/svg">
<g clip-path="url(#clip0_1_1777)">
<path d="M20.5837 9.43587L14.8063 4.9422C14.2993 4.54777 13.6752 4.33362 13.0329 4.33362C12.3905 4.33362 11.7665 4.54777 11.2595 4.9422L5.48096 9.43587C5.13369 9.70593 4.85273 10.0518 4.65953 10.447C4.46633 10.8422 4.366 11.2764 4.36621 11.7163V19.5163C4.36621 20.0909 4.59448 20.642 5.00081 21.0484C5.40714 21.4547 5.95824 21.683 6.53288 21.683H19.5329C20.1075 21.683 20.6586 21.4547 21.0649 21.0484C21.4713 20.642 21.6995 20.0909 21.6995 19.5163V11.7163C21.6995 10.8247 21.2879 9.98295 20.5837 9.43587Z" stroke="#8680F6" stroke-width="1.625" stroke-linecap="round" stroke-linejoin="round"/>
<path d="M17.3337 16.25C14.9395 17.6941 11.059 17.6941 8.66699 16.25" stroke="#8680F6" stroke-width="1.625" stroke-linecap="round" stroke-linejoin="round"/>
</g>
<defs>
<clipPath id="clip0_1_1777">
<rect width="26" height="26" fill="white"/>
</clipPath>
</defs>
</svg>
