<svg width="26" height="26" viewBox="0 0 26 26" fill="none" xmlns="http://www.w3.org/2000/svg">
<g clip-path="url(#clip0_29_1030)">
<path d="M12.9851 10.8792L13.0707 22.5462" stroke="white" stroke-width="1.125" stroke-linecap="round" stroke-linejoin="round"/>
<path d="M13.0703 22.5449L6.87632 9.59695C6.84827 9.52312 6.84201 9.44278 6.85829 9.36548C6.87456 9.28819 6.91268 9.2172 6.96812 9.16094C7.02356 9.10468 7.09399 9.06552 7.17104 9.04811C7.24808 9.0307 7.3285 9.03578 7.40275 9.06275L12.9847 10.878L18.5394 8.98104C18.6132 8.95299 18.6936 8.94673 18.7708 8.963C18.8481 8.97928 18.9191 9.0174 18.9754 9.07284C19.0317 9.12828 19.0708 9.19871 19.0882 9.27575C19.1056 9.3528 19.1005 9.43322 19.0736 9.50746L13.0703 22.5449Z" stroke="white" stroke-width="1.125" stroke-linecap="round" stroke-linejoin="round"/>
</g>
<defs>
<clipPath id="clip0_29_1030">
<rect width="18" height="18" fill="white" transform="translate(25.7285 12.9062) rotate(134.58)"/>
</clipPath>
</defs>
</svg>
