<svg width="26" height="26" viewBox="0 0 26 26" fill="none" xmlns="http://www.w3.org/2000/svg">
<g clip-path="url(#clip0_29_384)">
<path d="M3.25 13C3.25 14.2804 3.50219 15.5482 3.99217 16.7312C4.48216 17.9141 5.20034 18.9889 6.10571 19.8943C7.01108 20.7997 8.08591 21.5178 9.26884 22.0078C10.4518 22.4978 11.7196 22.75 13 22.75C14.2804 22.75 15.5482 22.4978 16.7312 22.0078C17.9141 21.5178 18.9889 20.7997 19.8943 19.8943C20.7997 18.9889 21.5178 17.9141 22.0078 16.7312C22.4978 15.5482 22.75 14.2804 22.75 13C22.75 10.4141 21.7228 7.93419 19.8943 6.10571C18.0658 4.27723 15.5859 3.25 13 3.25C10.4141 3.25 7.93419 4.27723 6.10571 6.10571C4.27723 7.93419 3.25 10.4141 3.25 13Z" stroke="#525270" stroke-width="1.625" stroke-linecap="round" stroke-linejoin="round"/>
<path d="M13 9.75H13.0117" stroke="#525270" stroke-width="1.625" stroke-linecap="round" stroke-linejoin="round"/>
<path d="M11.9166 13H13V17.3333H14.0833" stroke="#525270" stroke-width="1.625" stroke-linecap="round" stroke-linejoin="round"/>
</g>
<defs>
<clipPath id="clip0_29_384">
<rect width="26" height="26" fill="white"/>
</clipPath>
</defs>
</svg>
