<svg width="26" height="26" viewBox="0 0 26 26" fill="none" xmlns="http://www.w3.org/2000/svg">
<g clip-path="url(#clip0_29_372)">
<path d="M13 3.25012C13.143 3.25012 13.2849 3.25012 13.4258 3.25012C12.0341 4.5433 11.1395 6.28329 10.8976 8.16761C10.6557 10.0519 11.0817 11.9615 12.1017 13.5642C13.1216 15.167 14.6709 16.3618 16.4803 16.9407C18.2898 17.5197 20.2449 17.4463 22.0058 16.7333C21.3284 18.3632 20.2213 19.7786 18.8026 20.8286C17.3838 21.8786 15.7067 22.5237 13.95 22.6953C12.1933 22.8668 10.4231 22.5583 8.82799 21.8026C7.23292 21.047 5.8729 19.8725 4.893 18.4044C3.9131 16.9364 3.35007 15.2299 3.26399 13.467C3.1779 11.7041 3.57198 9.95086 4.40418 8.39434C5.23639 6.83783 6.4755 5.53641 7.98935 4.62892C9.50321 3.72142 11.235 3.24188 13 3.24146V3.25012Z" stroke="#525270" stroke-width="1.625" stroke-linecap="round" stroke-linejoin="round"/>
</g>
<defs>
<clipPath id="clip0_29_372">
<rect width="26" height="26" fill="white"/>
</clipPath>
</defs>
</svg>
