<svg width="25" height="25" viewBox="0 0 25 25" fill="none" xmlns="http://www.w3.org/2000/svg">
<g clip-path="url(#clip0_29_1075)">
<path d="M10.7107 14.2984L21.8082 3.20093" stroke="white" stroke-width="1.51329" stroke-linecap="round" stroke-linejoin="round"/>
<path d="M21.8072 3.20288L15.2496 21.3624C15.2053 21.459 15.1343 21.5408 15.0448 21.5982C14.9554 21.6556 14.8514 21.6861 14.7451 21.6861C14.6389 21.6861 14.5349 21.6556 14.4455 21.5982C14.356 21.5408 14.285 21.459 14.2407 21.3624L10.7097 14.3003L3.64769 10.7693C3.5511 10.7251 3.46925 10.654 3.41186 10.5646C3.35448 10.4752 3.32397 10.3712 3.32397 10.2649C3.32397 10.1587 3.35448 10.0546 3.41186 9.96522C3.46925 9.8758 3.5511 9.80473 3.64769 9.76047L21.8072 3.20288Z" stroke="white" stroke-width="1.51329" stroke-linecap="round" stroke-linejoin="round"/>
</g>
<defs>
<clipPath id="clip0_29_1075">
<rect width="24.2126" height="24.2126" fill="white" transform="translate(0.62085 0.175537)"/>
</clipPath>
</defs>
</svg>
