<svg width="26" height="27" viewBox="0 0 26 27" fill="none" xmlns="http://www.w3.org/2000/svg">
<g clip-path="url(#clip0_1_1330)">
<path d="M3.25 11.1693C3.25 12.1651 3.44615 13.1512 3.82725 14.0713C4.20835 14.9913 4.76693 15.8273 5.47111 16.5315C6.17528 17.2357 7.01127 17.7943 7.93132 18.1754C8.85137 18.5565 9.83748 18.7526 10.8333 18.7526C11.8292 18.7526 12.8153 18.5565 13.7354 18.1754C14.6554 17.7943 15.4914 17.2357 16.1956 16.5315C16.8997 15.8273 17.4583 14.9913 17.8394 14.0713C18.2205 13.1512 18.4167 12.1651 18.4167 11.1693C18.4167 10.1734 18.2205 9.18731 17.8394 8.26726C17.4583 7.3472 16.8997 6.51122 16.1956 5.80704C15.4914 5.10287 14.6554 4.54428 13.7354 4.16318C12.8153 3.78209 11.8292 3.58594 10.8333 3.58594C9.83748 3.58594 8.85137 3.78209 7.93132 4.16318C7.01127 4.54428 6.17528 5.10287 5.47111 5.80704C4.76693 6.51122 4.20835 7.3472 3.82725 8.26726C3.44615 9.18731 3.25 10.1734 3.25 11.1693Z" stroke="#525270" stroke-width="1.625" stroke-linecap="round" stroke-linejoin="round"/>
<path d="M22.75 23.0859L16.25 16.5859" stroke="#525270" stroke-width="1.625" stroke-linecap="round" stroke-linejoin="round"/>
</g>
<defs>
<clipPath id="clip0_1_1330">
<rect width="26" height="26" fill="white" transform="translate(0 0.335938)"/>
</clipPath>
</defs>
</svg>
