<svg width="24" height="24" viewBox="0 0 24 24" fill="none" xmlns="http://www.w3.org/2000/svg">
<path opacity="0.3" d="M3 5C3 4.44772 3.44772 4 4 4H20C20.5523 4 21 4.44772 21 5V19C21 20.1046 20.1046 21 19 21H5C3.89543 21 3 20.1046 3 19V5Z" fill="#8680F6"/>
<path fill-rule="evenodd" clip-rule="evenodd" d="M7.00009 7H9.00009C9.00009 8.65685 10.3432 10 12.0001 10C13.6569 10 15.0001 8.65685 15.0001 7H17.0001C17.0001 9.76142 14.7615 12 12.0001 12C9.23866 12 7.00009 9.76142 7.00009 7Z" fill="#8680F6"/>
</svg>
