<svg width="10" height="10" viewBox="0 0 10 10" fill="none" xmlns="http://www.w3.org/2000/svg">
<path d="M9.75897 5.03018L7.46158 5.75567C6.93111 5.9234 6.51376 6.34075 6.34214 6.87512L5.61664 9.17251C5.54643 9.39484 5.23439 9.39484 5.16419 9.17251L4.43869 6.87512C4.27097 6.34465 3.85362 5.9273 3.31925 5.75567L1.02185 5.03018C0.799526 4.95997 0.799526 4.64793 1.02185 4.57772L3.31925 3.85223C3.84972 3.68451 4.26707 3.26716 4.43869 2.73279L5.16419 0.435393C5.23439 0.213064 5.54643 0.213064 5.61664 0.435393L6.34214 2.73279C6.50986 3.26325 6.92721 3.68061 7.46158 3.85223L9.75897 4.57772C9.9813 4.64793 9.9813 4.95997 9.75897 5.03018Z" fill="white"/>
</svg>
