<svg width="20" height="20" viewBox="0 0 20 20" fill="none" xmlns="http://www.w3.org/2000/svg">
<path d="M1.04026 10.0021C1.50011 10.1473 1.96047 10.2924 2.42106 10.4376C3.4602 10.7651 4.50052 11.093 5.53886 11.4229L5.53935 11.423C7.00911 11.8912 8.05912 12.8686 8.54567 14.3695L8.5457 14.3696C8.89849 15.4584 9.24244 16.5535 9.58519 17.6448C9.72194 18.0802 9.85849 18.5149 9.99535 18.9485C10.47 17.4465 10.945 15.9464 11.4223 14.4462C11.8982 12.9394 12.9197 11.9199 14.4145 11.4328C14.4145 11.4328 14.4146 11.4328 14.4146 11.4327L14.6259 12.081C15.0443 11.9446 15.4649 11.8136 15.8856 11.6827C16.1334 11.6055 16.3812 11.5284 16.6286 11.4501L1.04026 10.0021ZM1.04026 10.0021C1.45742 9.87027 1.87435 9.73868 2.29145 9.60704L2.29188 9.6069C2.84851 9.43122 3.40542 9.25545 3.96308 9.07897M1.04026 10.0021L3.96308 9.07897M3.96308 9.07897C4.11097 9.03242 4.26112 8.9857 4.41262 8.93856C4.82015 8.81175 5.23745 8.68191 5.64695 8.54414C7.10102 8.05551 8.09033 7.05382 8.56003 5.59399L8.56023 5.59338C8.85782 4.66548 9.15334 3.73137 9.44831 2.79898C9.63167 2.21939 9.81481 1.64047 9.99812 1.06412C10.1468 1.53419 10.2957 2.00419 10.4446 2.47393L10.445 2.4752C10.6348 3.07382 10.8244 3.67204 11.0133 4.2702L11.0136 4.27133C11.0581 4.41129 11.1031 4.56137 11.1499 4.71716C11.2628 5.0935 11.3857 5.5031 11.5346 5.88345M3.96308 9.07897L14.4748 8.59016C13.0908 8.1569 12.0705 7.25774 11.5346 5.88345M11.5346 5.88345C11.5345 5.88329 11.5345 5.88313 11.5344 5.88296L12.1697 5.63531L11.5348 5.88393C11.5347 5.88377 11.5347 5.88361 11.5346 5.88345ZM12.0723 14.6521C11.5549 16.2781 11.0403 17.9041 10.5257 19.5329C10.4284 19.8442 10.267 19.9943 10.0083 19.9999L12.0723 14.6521Z" stroke="#525270" stroke-width="1.36364"/>
</svg>
