<svg width="26" height="26" viewBox="0 0 26 26" fill="none" xmlns="http://www.w3.org/2000/svg">
<g clip-path="url(#clip0_1_1754)">
<path d="M18.4163 8.66671V5.41671C18.4163 5.12939 18.3022 4.85384 18.099 4.65068C17.8959 4.44751 17.6203 4.33337 17.333 4.33337H6.49967C5.92504 4.33337 5.37394 4.56165 4.96761 4.96798C4.56128 5.3743 4.33301 5.9254 4.33301 6.50004M4.33301 6.50004C4.33301 7.07468 4.56128 7.62578 4.96761 8.03211C5.37394 8.43843 5.92504 8.66671 6.49967 8.66671H19.4997C19.787 8.66671 20.0625 8.78084 20.2657 8.98401C20.4689 9.18717 20.583 9.46272 20.583 9.75004V13M4.33301 6.50004V19.5C4.33301 20.0747 4.56128 20.6258 4.96761 21.0321C5.37394 21.4384 5.92504 21.6667 6.49967 21.6667H19.4997C19.787 21.6667 20.0625 21.5526 20.2657 21.3494C20.4689 21.1462 20.583 20.8707 20.583 20.5834V17.3334" stroke="#525270" stroke-width="1.625" stroke-linecap="round" stroke-linejoin="round"/>
<path d="M21.667 13V17.3333H17.3337C16.759 17.3333 16.2079 17.1051 15.8016 16.6987C15.3953 16.2924 15.167 15.7413 15.167 15.1667C15.167 14.592 15.3953 14.0409 15.8016 13.6346C16.2079 13.2283 16.759 13 17.3337 13H21.667Z" stroke="#525270" stroke-width="1.625" stroke-linecap="round" stroke-linejoin="round"/>
</g>
<defs>
<clipPath id="clip0_1_1754">
<rect width="26" height="26" fill="white"/>
</clipPath>
</defs>
</svg>
